<?xml version="1.0" encoding="UTF-8" standalone="no"?>
<!DOCTYPE svg PUBLIC "-//W3C//DTD SVG 1.1//EN"
 "http://www.w3.org/Graphics/SVG/1.1/DTD/svg11.dtd">
<!-- Generated by graphviz version 2.50.0 (0)
 -->
<!-- Pages: 1 -->
<svg width="260pt" height="88pt"
 viewBox="0.00 0.00 259.59 88.00" xmlns="http://www.w3.org/2000/svg" xmlns:xlink="http://www.w3.org/1999/xlink">
<g id="graph0" class="graph" transform="scale(1 1) rotate(0) translate(4 84)">
<polygon fill="white" stroke="transparent" points="-4,4 -4,-84 255.59,-84 255.59,4 -4,4"/>
<!-- 50d723a2&#45;e6bd&#45;4911&#45;8f58&#45;a3911e899217 -->
<g id="node1" class="node">
<title>50d723a2&#45;e6bd&#45;4911&#45;8f58&#45;a3911e899217</title>
<g id="a_node1"><a xlink:title=".">
<ellipse fill="black" stroke="black" cx="1.8" cy="-27.5" rx="1.8" ry="1.8"/>
</a>
</g>
</g>
<!-- q0 -->
<g id="node2" class="node">
<title>q0</title>
<ellipse fill="none" stroke="black" cx="60.1" cy="-27.5" rx="19.5" ry="19.5"/>
<text text-anchor="middle" x="60.1" y="-23.8" font-family="Times New Roman,serif" font-size="14.00">q0</text>
</g>
<!-- 50d723a2&#45;e6bd&#45;4911&#45;8f58&#45;a3911e899217&#45;&gt;q0 -->
<g id="edge1" class="edge">
<title>50d723a2&#45;e6bd&#45;4911&#45;8f58&#45;a3911e899217&#45;&gt;q0</title>
<g id="a_edge1"><a xlink:title="&#45;&gt;q0">
<path fill="none" stroke="black" d="M3.78,-27.5C7.28,-27.5 19.64,-27.5 31.78,-27.5"/>
<polygon fill="black" stroke="black" points="31.96,-30.48 40.46,-27.5 31.96,-24.53 31.96,-30.48"/>
</a>
</g>
</g>
<!-- q0&#45;&gt;q0 -->
<g id="edge2" class="edge">
<title>q0&#45;&gt;q0</title>
<path fill="none" stroke="black" d="M53.63,-46.02C52.53,-55.95 54.68,-65 60.1,-65 63.82,-65 66,-60.72 66.65,-54.82"/>
<polygon fill="black" stroke="black" points="69.62,-54.5 66.57,-46.02 63.67,-54.55 69.62,-54.5"/>
<text text-anchor="middle" x="60.1" y="-68.8" font-family="Times New Roman,serif" font-size="14.00">0</text>
</g>
<!-- q1 -->
<g id="node3" class="node">
<title>q1</title>
<ellipse fill="none" stroke="black" cx="146.09" cy="-27.5" rx="23.5" ry="23.5"/>
<ellipse fill="none" stroke="black" cx="146.09" cy="-27.5" rx="27.5" ry="27.5"/>
<text text-anchor="middle" x="146.09" y="-23.8" font-family="Times New Roman,serif" font-size="14.00">q1</text>
</g>
<!-- q0&#45;&gt;q1 -->
<g id="edge3" class="edge">
<title>q0&#45;&gt;q1</title>
<path fill="none" stroke="black" d="M79.74,-27.5C89.66,-27.5 102.12,-27.5 113.49,-27.5"/>
<polygon fill="black" stroke="black" points="113.82,-30.48 122.32,-27.5 113.82,-24.53 113.82,-30.48"/>
<text text-anchor="middle" x="101.1" y="-31.3" font-family="Times New Roman,serif" font-size="14.00">1</text>
</g>
<!-- q1&#45;&gt;q0 -->
<g id="edge4" class="edge">
<title>q1&#45;&gt;q0</title>
<path fill="none" stroke="black" d="M126.54,-14.23C117.93,-9.6 107.43,-6.09 97.6,-8.5 93.2,-9.58 88.74,-11.28 84.52,-13.24"/>
<polygon fill="black" stroke="black" points="82.98,-10.69 76.79,-17.23 85.71,-15.98 82.98,-10.69"/>
<text text-anchor="middle" x="101.1" y="-12.3" font-family="Times New Roman,serif" font-size="14.00">0</text>
</g>
<!-- q2 -->
<g id="node4" class="node">
<title>q2</title>
<ellipse fill="none" stroke="black" cx="232.09" cy="-27.5" rx="19.5" ry="19.5"/>
<text text-anchor="middle" x="232.09" y="-23.8" font-family="Times New Roman,serif" font-size="14.00">q2</text>
</g>
<!-- q1&#45;&gt;q2 -->
<g id="edge5" class="edge">
<title>q1&#45;&gt;q2</title>
<path fill="none" stroke="black" d="M169.6,-27.5C180.08,-27.5 192.64,-27.5 203.67,-27.5"/>
<polygon fill="black" stroke="black" points="203.99,-30.48 212.49,-27.5 203.99,-24.53 203.99,-30.48"/>
<text text-anchor="middle" x="191.09" y="-31.3" font-family="Times New Roman,serif" font-size="14.00">1</text>
</g>
<!-- q2&#45;&gt;q1 -->
<g id="edge6" class="edge">
<title>q2&#45;&gt;q1</title>
<path fill="none" stroke="black" d="M214.98,-17.57C208.83,-14.33 201.61,-11.14 194.59,-9.5 187.83,-7.92 180.73,-9.02 174.15,-11.29"/>
<polygon fill="black" stroke="black" points="172.8,-8.63 166.14,-14.69 175.13,-14.11 172.8,-8.63"/>
<text text-anchor="middle" x="191.09" y="-13.3" font-family="Times New Roman,serif" font-size="14.00">1</text>
</g>
<!-- q2&#45;&gt;q2 -->
<g id="edge7" class="edge">
<title>q2&#45;&gt;q2</title>
<path fill="none" stroke="black" d="M224.9,-46.02C223.68,-55.95 226.08,-65 232.09,-65 236.23,-65 238.65,-60.72 239.37,-54.82"/>
<polygon fill="black" stroke="black" points="242.34,-54.49 239.28,-46.02 236.39,-54.55 242.34,-54.49"/>
<text text-anchor="middle" x="232.09" y="-68.8" font-family="Times New Roman,serif" font-size="14.00">0</text>
</g>
</g>
</svg>
