<?xml version="1.0" encoding="UTF-8" standalone="no"?>
<!DOCTYPE svg PUBLIC "-//W3C//DTD SVG 1.1//EN"
 "http://www.w3.org/Graphics/SVG/1.1/DTD/svg11.dtd">
<!-- Generated by graphviz version 2.50.0 (0)
 -->
<!-- Pages: 1 -->
<svg width="260pt" height="124pt"
 viewBox="0.00 0.00 259.59 124.00" xmlns="http://www.w3.org/2000/svg" xmlns:xlink="http://www.w3.org/1999/xlink">
<g id="graph0" class="graph" transform="scale(1 1) rotate(0) translate(4 120)">
<polygon fill="white" stroke="transparent" points="-4,4 -4,-120 255.59,-120 255.59,4 -4,4"/>
<!-- 4e85672c&#45;fa56&#45;4acd&#45;8f9d&#45;c796d7b8358c -->
<g id="node1" class="node">
<title>4e85672c&#45;fa56&#45;4acd&#45;8f9d&#45;c796d7b8358c</title>
<g id="a_node1"><a xlink:title=".">
<ellipse fill="black" stroke="black" cx="1.8" cy="-19.5" rx="1.8" ry="1.8"/>
</a>
</g>
</g>
<!-- q0 -->
<g id="node2" class="node">
<title>q0</title>
<ellipse fill="none" stroke="black" cx="60.1" cy="-19.5" rx="19.5" ry="19.5"/>
<text text-anchor="middle" x="60.1" y="-15.8" font-family="Times New Roman,serif" font-size="14.00">q0</text>
</g>
<!-- 4e85672c&#45;fa56&#45;4acd&#45;8f9d&#45;c796d7b8358c&#45;&gt;q0 -->
<g id="edge1" class="edge">
<title>4e85672c&#45;fa56&#45;4acd&#45;8f9d&#45;c796d7b8358c&#45;&gt;q0</title>
<g id="a_edge1"><a xlink:title="&#45;&gt;q0">
<path fill="none" stroke="black" d="M3.78,-19.5C7.28,-19.5 19.64,-19.5 31.78,-19.5"/>
<polygon fill="black" stroke="black" points="31.96,-22.48 40.46,-19.5 31.96,-16.53 31.96,-22.48"/>
</a>
</g>
</g>
<!-- q1 -->
<g id="node3" class="node">
<title>q1</title>
<ellipse fill="none" stroke="black" cx="146.09" cy="-59.5" rx="23.5" ry="23.5"/>
<ellipse fill="none" stroke="black" cx="146.09" cy="-59.5" rx="27.5" ry="27.5"/>
<text text-anchor="middle" x="146.09" y="-55.8" font-family="Times New Roman,serif" font-size="14.00">q1</text>
</g>
<!-- q0&#45;&gt;q1 -->
<g id="edge2" class="edge">
<title>q0&#45;&gt;q1</title>
<path fill="none" stroke="black" d="M78.1,-27.59C89.21,-32.89 104,-39.93 116.86,-46.05"/>
<polygon fill="black" stroke="black" points="115.61,-48.75 124.56,-49.72 118.17,-43.38 115.61,-48.75"/>
<text text-anchor="middle" x="101.1" y="-43.3" font-family="Times New Roman,serif" font-size="14.00">a</text>
</g>
<!-- q1&#45;&gt;q1 -->
<g id="edge3" class="edge">
<title>q1&#45;&gt;q1</title>
<path fill="none" stroke="black" d="M138.01,-81.7C137.13,-92 139.82,-101 146.09,-101 150.51,-101 153.15,-96.55 154.02,-90.33"/>
<polygon fill="black" stroke="black" points="157,-90.25 154.18,-81.7 151.05,-90.14 157,-90.25"/>
<text text-anchor="middle" x="146.09" y="-104.8" font-family="Times New Roman,serif" font-size="14.00">a</text>
</g>
<!-- q2 -->
<g id="node4" class="node">
<title>q2</title>
<ellipse fill="none" stroke="black" cx="232.09" cy="-19.5" rx="19.5" ry="19.5"/>
<text text-anchor="middle" x="232.09" y="-15.8" font-family="Times New Roman,serif" font-size="14.00">q2</text>
</g>
<!-- q1&#45;&gt;q2 -->
<g id="edge4" class="edge">
<title>q1&#45;&gt;q2</title>
<path fill="none" stroke="black" d="M167.86,-49.61C179.46,-44.09 194,-37.16 206.21,-31.35"/>
<polygon fill="black" stroke="black" points="207.83,-33.87 214.23,-27.53 205.28,-28.5 207.83,-33.87"/>
<text text-anchor="middle" x="191.09" y="-43.3" font-family="Times New Roman,serif" font-size="14.00">ε</text>
</g>
<!-- q2&#45;&gt;q0 -->
<g id="edge5" class="edge">
<title>q2&#45;&gt;q0</title>
<path fill="none" stroke="black" d="M212.57,-16.84C200.39,-15.22 184.08,-13.32 169.59,-12.5 148.74,-11.32 143.45,-11.32 122.6,-12.5 111.28,-13.14 98.85,-14.44 88.15,-15.75"/>
<polygon fill="black" stroke="black" points="87.68,-12.81 79.62,-16.84 88.43,-18.71 87.68,-12.81"/>
<text text-anchor="middle" x="146.09" y="-16.3" font-family="Times New Roman,serif" font-size="14.00">b</text>
</g>
</g>
</svg>
