<?xml version="1.0" standalone="no"?>
<!DOCTYPE svg PUBLIC "-//W3C//DTD SVG 20010904//EN"
 "http://www.w3.org/TR/2001/REC-SVG-20010904/DTD/svg10.dtd">
<svg version="1.0" xmlns="http://www.w3.org/2000/svg"
 width="512.000000pt" height="512.000000pt" viewBox="0 0 512.000000 512.000000"
 preserveAspectRatio="xMidYMid meet">
<metadata>
Created by potrace 1.11, written by Peter Selinger 2001-2013
</metadata>
<g transform="translate(0.000000,512.000000) scale(0.100000,-0.100000)"
fill="#000000" stroke="none">
<path d="M4512 4894 c-78 -39 -107 -93 -107 -199 l0 -81 -400 -560 -400 -561
-72 -17 -72 -17 -344 172 -344 172 -12 45 c-22 83 -114 152 -201 152 -108 0
-209 -97 -210 -202 0 -38 -3 -40 -368 -332 l-368 -295 -57 6 c-48 5 -64 2
-110 -21 -56 -27 -100 -77 -112 -127 -6 -23 -38 -38 -349 -163 l-343 -137 -44
20 c-84 39 -172 22 -235 -44 -132 -136 -35 -356 156 -355 76 1 164 67 189 142
11 34 16 36 354 171 l343 137 49 -21 c130 -57 278 32 288 173 l3 46 368 295
368 295 57 -5 c39 -4 68 0 94 11 l38 15 354 -176 353 -177 6 -35 c7 -47 59
-109 110 -132 78 -36 189 -16 243 42 39 42 55 95 52 173 l-3 71 402 563 c323
451 407 562 425 562 129 0 228 131 197 258 -32 135 -172 199 -298 136z"/>
<path d="M4190 1795 l0 -1795 415 0 415 0 0 1795 0 1795 -415 0 -415 0 0
-1795z m620 -5 l0 -1580 -200 0 -200 0 0 1580 0 1580 200 0 200 0 0 -1580z"/>
<path d="M2150 1335 l0 -1335 410 0 410 0 0 1335 0 1335 -410 0 -410 0 0
-1335z m610 -5 l0 -1120 -200 0 -200 0 0 1120 0 1120 200 0 200 0 0 -1120z"/>
<path d="M3170 1080 l0 -1080 415 0 415 0 0 1080 0 1080 -415 0 -415 0 0
-1080z m610 -5 l0 -865 -200 0 -200 0 0 865 0 865 200 0 200 0 0 -865z"/>
<path d="M1120 925 l0 -925 415 0 415 0 0 925 0 925 -415 0 -415 0 0 -925z
m620 -5 l0 -710 -200 0 -200 0 0 710 0 710 200 0 200 0 0 -710z"/>
<path d="M100 720 l0 -720 415 0 415 0 0 720 0 720 -415 0 -415 0 0 -720z
m610 -5 l0 -505 -200 0 -200 0 0 505 0 505 200 0 200 0 0 -505z"/>
</g>
</svg>
